<svg width="128" height="128" viewBox="0 0 128 128" xmlns="http://www.w3.org/2000/svg">
    <path d="M64 10C34.2 10 10 34.2 10 64s24.2 54 54 54 54-24.2 54-54S93.8 10 64 10zm0 98c-24.3 0-44-19.7-44-44s19.7-44 44-44 44 19.7 44 44-19.7 44-44 44z" fill="currentColor"/>
    <path d="M64 30c-18.8 0-34 15.2-34 34s15.2 34 34 34 34-15.2 34-34-15.2-34-34-34zm0 60c-14.4 0-26-11.6-26-26s11.6-26 26-26 26 11.6 26 26-11.6 26-26 26z" fill="currentColor"/>
    <circle cx="64" cy="64" r="12" fill="currentColor"/>
</svg>
